<svg width="26" height="28" viewBox="0 0 26 28" fill="none" xmlns="http://www.w3.org/2000/svg">
<path d="M25.7632 3.86934L22.316 0.24994C21.9985 -0.0833134 21.4842 -0.0833134 21.1668 0.24994L20.0176 1.45605C19.7002 1.78952 19.7002 2.32944 20.0176 2.6627L16.1261 6.74865C13.7581 5.69557 10.9259 6.17546 8.99617 8.20164L0.952178 16.6476C-0.317392 17.9806 -0.317392 20.1406 0.952178 21.4737L5.54853 26.3002C6.8181 27.6333 8.87531 27.6333 10.1449 26.3002L18.1889 17.8543C20.1186 15.8281 20.5757 12.8549 19.5727 10.3681L23.4642 6.2821C23.7816 6.61535 24.3021 6.61535 24.6195 6.2821L25.7687 5.07545C26.078 4.74273 26.078 4.20259 25.7632 3.86934ZM9.1064 22.5651L4.51005 17.7391L10.7056 11.234L15.3019 16.0606L9.1064 22.5651Z" fill="#FAF9F7"/>
</svg>
