<svg width="18" height="18" viewBox="0 0 18 18" fill="none" xmlns="http://www.w3.org/2000/svg">
<path d="M17.836 2.55121L15.4496 0.164796C15.2298 -0.0549319 14.8737 -0.0549319 14.6539 0.164796L13.8583 0.960034C13.6386 1.1799 13.6386 1.5359 13.8583 1.75562L11.1642 4.44966C9.52482 3.75532 7.5641 4.07173 6.22812 5.40767L0.6592 10.9765C-0.219733 11.8554 -0.219733 13.2795 0.6592 14.1585L3.84129 17.3408C4.72022 18.2197 6.14445 18.2197 7.02338 17.3408L12.5923 11.772C13.9283 10.4361 14.2447 8.47577 13.5503 6.83608L16.2444 4.14204C16.4642 4.36177 16.8245 4.36177 17.0443 4.14204L17.8399 3.34645C18.054 3.12708 18.054 2.77094 17.836 2.55121ZM6.30443 14.8781L3.12234 11.6961L7.41154 7.40702L10.5936 10.5894L6.30443 14.8781Z" fill="#FAF9F7"/>
</svg>
