<svg width="24" height="25" viewBox="0 0 24 25" fill="none" xmlns="http://www.w3.org/2000/svg">
<path d="M20.5714 0.6875H3.42857C1.53321 0.6875 0 2.19676 0 4.0625V20.9375C0 22.8032 1.53321 24.3125 3.42857 24.3125H20.5714C22.4668 24.3125 24 22.8032 24 20.9375V4.0625C24 2.19676 22.4679 0.6875 20.5714 0.6875ZM6.85714 19.25C5.91321 19.25 5.14286 18.4917 5.14286 17.5625C5.14286 16.6333 5.91321 15.875 6.85714 15.875C7.80107 15.875 8.57143 16.6333 8.57143 17.5625C8.57143 18.4917 7.8 19.25 6.85714 19.25ZM6.85714 9.125C5.91429 9.125 5.14286 8.36563 5.14286 7.4375C5.14286 6.50937 5.91321 5.75 6.85714 5.75C7.80107 5.75 8.57143 6.50832 8.57143 7.4375C8.57143 8.36668 7.8 9.125 6.85714 9.125ZM12 14.1875C11.0571 14.1875 10.2857 13.4281 10.2857 12.5C10.2857 11.5719 11.0561 10.8125 12 10.8125C12.9439 10.8125 13.7143 11.5708 13.7143 12.5C13.7143 13.4292 12.9429 14.1875 12 14.1875ZM17.1429 19.25C16.1989 19.25 15.4286 18.4917 15.4286 17.5625C15.4286 16.6333 16.1989 15.875 17.1429 15.875C18.0868 15.875 18.8571 16.6333 18.8571 17.5625C18.8571 18.4917 18.0857 19.25 17.1429 19.25ZM17.1429 9.125C16.1989 9.125 15.4286 8.36668 15.4286 7.4375C15.4286 6.50832 16.1989 5.75 17.1429 5.75C18.0868 5.75 18.8571 6.50832 18.8571 7.4375C18.8571 8.36668 18.0857 9.125 17.1429 9.125Z" fill="#780A0A"/>
</svg>
