<svg width="18" height="18" viewBox="0 0 18 18" fill="none" xmlns="http://www.w3.org/2000/svg">
<path d="M18 5.95882C18 6.0208 17.9992 6.07808 17.9973 6.14005C17.4028 5.81956 16.7489 5.65714 16.1003 5.65714C13.1946 5.65714 12.3912 8.26016 12.3912 9.35618C12.3912 10.3052 12.7401 11.2664 13.4329 12.0322C12.7467 12.2648 12.027 12.383 11.3017 12.383L8.23677 12.3832L6.80977 13.8042C6.59517 14.0184 6.49614 14.2959 6.49614 14.5822C6.49614 15.0729 6.75081 15.1824 6.75081 15.8818C6.75341 17.0665 5.7866 18 4.62995 18C4.08045 18 3.53623 17.7875 3.12806 17.3753C2.722 16.9731 2.53672 16.4519 2.53672 15.9273C2.53672 15.7536 2.55694 15.5797 2.59631 15.4096C2.42609 15.4486 2.25203 15.4686 2.07881 15.4686C0.596959 15.4686 0 14.1827 0 13.3804C0 12.2072 0.954502 11.2628 2.12311 11.2628C2.79003 11.2628 2.93065 11.5162 3.42249 11.5162C3.70934 11.5162 3.98641 11.4175 4.20086 11.2033L5.62716 9.78301L5.62839 6.73794C5.62839 4.52343 6.6054 2.98274 7.84924 1.74037C9.01397 0.580124 10.5348 0 12.0575 0C13.5801 0 15.1087 0.580124 16.2728 1.74037C17.434 2.92659 18 4.44271 18 5.95882Z" fill="#FAF9F7"/>
</svg>
