<svg width="28" height="28" viewBox="0 0 28 28" fill="none" xmlns="http://www.w3.org/2000/svg">
<path d="M28 9.26928C28 9.36569 27.9987 9.45478 27.9958 9.55119C27.071 9.05265 26.0538 8.8 25.0448 8.8C20.5249 8.8 19.2752 12.8491 19.2752 14.5541C19.2752 16.0302 19.8179 17.5255 20.8957 18.7167C19.8281 19.0786 18.7087 19.2625 17.5805 19.2625L12.8128 19.2627L10.593 21.4732C10.2592 21.8063 10.1051 22.238 10.1051 22.6835C10.1051 23.4467 10.5013 23.617 10.5013 24.7051C10.5053 26.5478 9.00138 28 7.20214 28C6.34737 28 5.5008 27.6694 4.86587 27.0283C4.23422 26.4026 3.94602 25.5919 3.94602 24.7758C3.94602 24.5056 3.97746 24.2351 4.03871 23.9705C3.77391 24.0311 3.50315 24.0623 3.2337 24.0623C0.928603 24.0623 0 22.062 0 20.814C0 18.989 1.48478 17.5199 3.30261 17.5199C4.34004 17.5199 4.55879 17.914 5.32388 17.914C5.77008 17.914 6.20108 17.7606 6.53467 17.4274L8.75337 15.218L8.75528 10.4812C8.75528 7.03644 10.2751 4.63983 12.2099 2.70725C14.0217 0.902416 16.3875 0 18.7561 0C21.1246 0 23.5025 0.902416 25.3132 2.70725C27.1195 4.55248 28 6.91088 28 9.26928Z" fill="#FAF9F7"/>
</svg>
