<svg width="360" height="336" viewBox="0 0 360 336" fill="none" xmlns="http://www.w3.org/2000/svg">
<path d="M-567 167.655C-567 167.655 -479.25 113.047 -391.5 113.047C-303.75 113.047 -216 167.655 -216 167.655C-216 167.655 -128.25 222.263 -40.5 222.263C47.25 222.263 135 167.655 135 167.655C135 167.655 222.75 113.047 310.5 113.047C398.25 113.047 486 167.655 486 167.655C486 167.655 573.75 222.263 661.5 222.263C749.25 222.263 837 167.655 837 167.655" stroke="#B44D12" stroke-width="2.5"/>
<path d="M-567 110.672C-567 110.672 -479.25 56.0642 -391.5 56.0642C-303.75 56.0642 -216 110.672 -216 110.672C-216 110.672 -128.25 165.28 -40.5 165.28C47.25 165.28 135 110.672 135 110.672C135 110.672 222.75 56.0642 310.5 56.0642C398.25 56.0642 486 110.672 486 110.672C486 110.672 573.75 165.28 661.5 165.28C749.25 165.28 837 110.672 837 110.672" stroke="#B44D12" stroke-width="2.5"/>
<path d="M-567 221.076C-567 221.076 -479.25 165.281 -391.5 165.281C-303.75 165.281 -216 221.076 -216 221.076C-216 221.076 -128.25 276.871 -40.5 276.871C47.25 276.871 135 221.076 135 221.076C135 221.076 222.75 165.281 310.5 165.281C398.25 165.281 486 221.076 486 221.076C486 221.076 573.75 276.871 661.5 276.871C749.25 276.871 837 221.076 837 221.076" stroke="#B44D12" stroke-width="2.5"/>
<path d="M-567 57.2513C-567 57.2513 -479.25 1.45605 -391.5 1.45605C-303.75 1.45605 -216 57.2513 -216 57.2513C-216 57.2513 -128.25 113.047 -40.5 113.047C47.25 113.047 135 57.2513 135 57.2513C135 57.2513 222.75 1.45605 310.5 1.45605C398.25 1.45605 486 57.2513 486 57.2513C486 57.2513 573.75 113.047 661.5 113.047C749.25 113.047 837 57.2513 837 57.2513" stroke="#B44D12" stroke-width="2.5"/>
<path d="M-567 0.268898C-567 0.268898 -479.25 -55.5264 -391.5 -55.5264C-303.75 -55.5264 -216 0.268898 -216 0.268898C-216 0.268898 -128.25 56.0642 -40.5 56.0642C47.25 56.0642 135 0.268898 135 0.268898C135 0.268898 222.75 -55.5264 310.5 -55.5264C398.25 -55.5264 486 0.268898 486 0.268898C486 0.268898 573.75 56.0642 661.5 56.0642C749.25 56.0642 837 0.268898 837 0.268898" stroke="#B44D12" stroke-width="2.5"/>
<path d="M-567 278.058C-567 278.058 -479.25 222.263 -391.5 222.263C-303.75 222.263 -216 278.058 -216 278.058C-216 278.058 -128.25 333.853 -40.5 333.853C47.25 333.853 135 278.058 135 278.058C135 278.058 222.75 222.263 310.5 222.263C398.25 222.263 486 278.058 486 278.058C486 278.058 573.75 333.853 661.5 333.853C749.25 333.853 837 278.058 837 278.058" stroke="#B44D12" stroke-width="2.5"/>
</svg>
