<svg width="1442" height="525" viewBox="0 0 1442 525" fill="none" xmlns="http://www.w3.org/2000/svg">
<path d="M1 267.891C1 267.891 91 184.102 181 184.102C271 184.102 361 267.891 361 267.891C361 267.891 451 351.679 541 351.679C631 351.679 721 267.891 721 267.891C721 267.891 811 184.102 901 184.102C991 184.102 1081 267.891 1081 267.891C1081 267.891 1171 351.679 1261 351.679C1351 351.679 1441 267.891 1441 267.891" stroke="#B44D12" stroke-width="2.5"/>
<path d="M1 180.459C1 180.459 91 96.6702 181 96.6702C271 96.6702 361 180.459 361 180.459C361 180.459 451 264.248 541 264.248C631 264.248 721 180.459 721 180.459C721 180.459 811 96.6702 901 96.6702C991 96.6702 1081 180.459 1081 180.459C1081 180.459 1171 264.248 1261 264.248C1351 264.248 1441 180.459 1441 180.459" stroke="#B44D12" stroke-width="2.5"/>
<path d="M1 349.858C1 349.858 91 264.248 181 264.248C271 264.248 361 349.858 361 349.858C361 349.858 451 435.468 541 435.468C631 435.468 721 349.858 721 349.858C721 349.858 811 264.248 901 264.248C991 264.248 1081 349.858 1081 349.858C1081 349.858 1171 435.468 1261 435.468C1351 435.468 1441 349.858 1441 349.858" stroke="#B44D12" stroke-width="2.5"/>
<path d="M1 98.4918C1 98.4918 91 12.8816 181 12.8816C271 12.8816 361 98.4918 361 98.4918C361 98.4918 451 184.102 541 184.102C631 184.102 721 98.4918 721 98.4918C721 98.4918 811 12.8816 901 12.8816C991 12.8816 1081 98.4918 1081 98.4918C1081 98.4918 1171 184.102 1261 184.102C1351 184.102 1441 98.4918 1441 98.4918" stroke="#B44D12" stroke-width="2.5"/>
<path d="M1 11.0602C1 11.0602 91 -74.55 181 -74.55C271 -74.55 361 11.0602 361 11.0602C361 11.0602 451 96.6704 541 96.6704C631 96.6704 721 11.0602 721 11.0602C721 11.0602 811 -74.55 901 -74.55C991 -74.55 1081 11.0602 1081 11.0602C1081 11.0602 1171 96.6704 1261 96.6704C1351 96.6704 1441 11.0602 1441 11.0602" stroke="#B44D12" stroke-width="2.5"/>
<path d="M1 437.29C1 437.29 91 351.679 181 351.679C271 351.679 361 437.29 361 437.29C361 437.29 451 522.9 541 522.9C631 522.9 721 437.29 721 437.29C721 437.29 811 351.679 901 351.679C991 351.679 1081 437.29 1081 437.29C1081 437.29 1171 522.9 1261 522.9C1351 522.9 1441 437.29 1441 437.29" stroke="#B44D12" stroke-width="2.5"/>
</svg>
